<svg width="319" height="42" fill="none" xmlns="http://www.w3.org/2000/svg"><path d="M17.947 38.822a.5.5 0 0 0-.5-.5H7.68c-2.158 0-4.002-1.83-4.002-4.21V7.888c0-2.38 1.845-4.21 4.002-4.21h9.767a.5.5 0 0 0 .5-.5V1a.5.5 0 0 0-.5-.5H7.68C3.66.5.5 3.863.5 7.888v26.224c0 4.024 3.158 7.388 7.18 7.388h9.767a.5.5 0 0 0 .5-.5v-2.178zM24.053 3.178a.5.5 0 0 0 .5.5h9.792c2.138 0 3.977 1.823 3.977 4.21v26.224c0 2.391-1.838 4.21-3.977 4.21h-9.792a.5.5 0 0 0-.5.5V41a.5.5 0 0 0 .5.5h9.792c4.013 0 7.155-3.364 7.155-7.388V7.888C41.5 3.871 38.36.5 34.345.5h-9.792a.5.5 0 0 0-.5.5v2.178z" fill="#0B2E4F" stroke="#0B2E4F" stroke-linejoin="round"/><path d="M21 19.235a5.294 5.294 0 1 1 0-10.588 5.294 5.294 0 0 1 0 10.588zm0-8.363a3.072 3.072 0 1 0-.003 6.143A3.072 3.072 0 0 0 21 10.872zM30.494 32.765H12.092a1.11 1.11 0 0 1-.772-.31 1.04 1.04 0 0 1-.32-.747v-3.196c0-3.882 3.08-6.924 7.01-6.924h6.57c3.93 0 7.008 3.042 7.008 6.924v3.196a1.025 1.025 0 0 1-.32.748 1.094 1.094 0 0 1-.774.309zm-17.31-2.114h16.222v-2.139c0-2.697-2.118-4.81-4.824-4.81h-6.57c-2.706 0-4.825 2.113-4.825 4.81l-.003 2.139z" fill="#006F98" stroke="#006F98"/><path d="M61.793 4.625v31.19H57V4.625h4.793zM73.001 35.816h-4.818V4.625h4.818l17.288 25.346h-1.37V4.625h4.825v31.19H88.92L71.632 10.466H73v25.35zM104.903 4.625v31.19h-4.769V4.625h4.769zm12.104 18.13h-16.612v-4.298h16.612v4.298zm2.298-13.793H100.48V4.625h18.825v4.337zM151.256 20.965c0 3.225-.643 6.068-1.929 8.53a14.533 14.533 0 0 1-5.358 5.788c-2.282 1.39-4.928 2.087-7.938 2.09-2.77.051-5.5-.672-7.884-2.09a14.39 14.39 0 0 1-5.334-5.755c-1.274-2.437-1.911-5.269-1.911-8.496 0-3.227.644-6.07 1.932-8.53a14.498 14.498 0 0 1 5.358-5.787c2.284-1.395 4.913-2.092 7.884-2.09 2.972.002 5.611.699 7.918 2.09a14.578 14.578 0 0 1 5.337 5.788c1.283 2.447 1.925 5.268 1.925 8.462zm-4.988 0c0-2.382-.42-4.444-1.259-6.187a9.712 9.712 0 0 0-3.535-4.076 9.864 9.864 0 0 0-8.076-1.22 9.88 9.88 0 0 0-3.688 1.971 9.934 9.934 0 0 0-2.549 3.325c-.855 1.743-1.282 3.805-1.279 6.187.002 2.382.428 4.453 1.279 6.212a10.226 10.226 0 0 0 2.601 3.24 10.152 10.152 0 0 0 11.712.87 9.659 9.659 0 0 0 3.535-4.12 14.317 14.317 0 0 0 1.259-6.202zM170.08 37.374c-3.149 0-5.896-.677-8.243-2.03a13.907 13.907 0 0 1-5.446-5.72c-1.293-2.46-1.94-5.334-1.94-8.622 0-3.288.661-6.15 1.984-8.583a14.227 14.227 0 0 1 5.585-5.741c2.403-1.367 5.165-2.051 8.287-2.051a16.62 16.62 0 0 1 6.822 1.352c1.971.854 3.7 2.157 5.038 3.8a12.407 12.407 0 0 1 2.569 5.762h-5.29a8.308 8.308 0 0 0-3.356-4.627c-1.637-1.105-3.611-1.658-5.922-1.66a10.505 10.505 0 0 0-5.563 1.44 9.737 9.737 0 0 0-3.655 4.063c-.869 1.746-1.305 3.827-1.307 6.245a13.791 13.791 0 0 0 1.307 6.177 9.795 9.795 0 0 0 3.677 4.118 10.407 10.407 0 0 0 5.541 1.462c2.135.05 4.234-.538 6.013-1.682a8.294 8.294 0 0 0 3.445-4.475h5.179a12.587 12.587 0 0 1-2.723 5.653 13.908 13.908 0 0 1-5.158 3.779 16.995 16.995 0 0 1-6.844 1.34zM208.762 35.816h-19.164V4.625h19.17v4.337h-16.376l1.935-1.718v10.793h12.981v4.168h-12.981v10.998l-1.935-1.763h16.376l-.006 4.375zM219.758 35.8h-4.6V4.625h11.496c3.312 0 5.91.836 7.796 2.51 1.886 1.672 2.827 4.004 2.823 6.993 0 2.148-.495 3.959-1.484 5.433a8.548 8.548 0 0 1-4.243 3.242l5.978 13.012h-5.058l-5.476-12.081h-7.232V35.8zm0-26.967v10.734h6.896c1.841 0 3.262-.479 4.263-1.437 1.002-.959 1.503-2.284 1.505-3.975 0-1.717-.508-3.033-1.525-3.95-1.017-.916-2.431-1.374-4.243-1.372h-6.896zM240.719 8.962V4.625h23.964v4.337h-23.964zm14.409-2.148v29.002h-4.86V6.814h4.86zM285.451 4.625v31.19h-4.793V4.625h4.793zM302.954 35.816h-11.113V4.625h10.89c3.256 0 6.102.65 8.537 1.952a14.209 14.209 0 0 1 5.693 5.478c1.359 2.352 2.039 5.088 2.039 8.207 0 3.064-.672 5.766-2.018 8.109a14.243 14.243 0 0 1-5.639 5.477c-2.395 1.312-5.192 1.968-8.389 1.968zm-6.197-29.002v26.84l-2.331-2.235h8.145c2.083.05 4.144-.415 5.984-1.352a9.377 9.377 0 0 0 3.897-3.867c.911-1.676 1.367-3.66 1.369-5.95 0-2.322-.463-4.324-1.391-6.006a9.53 9.53 0 0 0-3.966-3.904c-1.717-.917-3.771-1.375-6.162-1.375h-7.863l2.318-2.15z" fill="#0B2E4F"/></svg>